<svg width="33" height="32" viewBox="0 0 33 32" fill="none" xmlns="http://www.w3.org/2000/svg">
<g id="Icon/linear/profile-2user">
<g id="profile-2user">
<path id="Vector" d="M12.7134 14.4927C12.5801 14.4793 12.4201 14.4793 12.2734 14.4927C9.10008 14.386 6.58008 11.786 6.58008 8.58602C6.58008 5.31935 9.22008 2.66602 12.5001 2.66602C15.7667 2.66602 18.4201 5.31935 18.4201 8.58602C18.4067 11.786 15.8867 14.386 12.7134 14.4927Z" stroke="#319DFF" stroke-width="1.5" stroke-linecap="round" stroke-linejoin="round"/>
<path id="Vector_2" d="M22.3801 5.33398C24.9668 5.33398 27.0468 7.42732 27.0468 10.0007C27.0468 12.5207 25.0468 14.574 22.5535 14.6673C22.4468 14.654 22.3268 14.654 22.2068 14.6673" stroke="#319DFF" stroke-width="1.5" stroke-linecap="round" stroke-linejoin="round"/>
<path id="Vector_3" d="M6.04671 19.414C2.82004 21.574 2.82004 25.094 6.04671 27.2407C9.71338 29.694 15.7267 29.694 19.3934 27.2407C22.62 25.0807 22.62 21.5607 19.3934 19.414C15.74 16.974 9.72671 16.974 6.04671 19.414Z" stroke="#319DFF" stroke-width="1.5" stroke-linecap="round" stroke-linejoin="round"/>
<path id="Vector_4" d="M24.9534 26.666C25.9134 26.466 26.82 26.0793 27.5667 25.506C29.6467 23.946 29.6467 21.3727 27.5667 19.8127C26.8334 19.2527 25.94 18.8793 24.9934 18.666" stroke="#319DFF" stroke-width="1.5" stroke-linecap="round" stroke-linejoin="round"/>
</g>
</g>
</svg>
