<svg width="32" height="32" viewBox="0 0 32 32" fill="none" xmlns="http://www.w3.org/2000/svg">
<g id="Icon/linear/shopping-cart">
<g id="shopping-cart">
<path id="Vector" d="M2.66675 2.66602H4.98676C6.42676 2.66602 7.56008 3.90602 7.44008 5.33268L6.33341 18.6127C6.14675 20.786 7.86674 22.6527 10.0534 22.6527H24.2534C26.1734 22.6527 27.8534 21.0794 28.0001 19.1727L28.7201 9.17269C28.8801 6.95936 27.2001 5.15934 24.9734 5.15934H7.76009" stroke="#319DFF" stroke-width="1.5" stroke-miterlimit="10" stroke-linecap="round" stroke-linejoin="round"/>
<path id="Vector_2" d="M21.6667 29.3333C22.5871 29.3333 23.3333 28.5871 23.3333 27.6667C23.3333 26.7462 22.5871 26 21.6667 26C20.7462 26 20 26.7462 20 27.6667C20 28.5871 20.7462 29.3333 21.6667 29.3333Z" stroke="#319DFF" stroke-width="1.5" stroke-miterlimit="10" stroke-linecap="round" stroke-linejoin="round"/>
<path id="Vector_3" d="M10.9999 29.3333C11.9204 29.3333 12.6666 28.5871 12.6666 27.6667C12.6666 26.7462 11.9204 26 10.9999 26C10.0794 26 9.33325 26.7462 9.33325 27.6667C9.33325 28.5871 10.0794 29.3333 10.9999 29.3333Z" stroke="#319DFF" stroke-width="1.5" stroke-miterlimit="10" stroke-linecap="round" stroke-linejoin="round"/>
<path id="Vector_4" d="M12 10.666H28" stroke="#319DFF" stroke-width="1.5" stroke-miterlimit="10" stroke-linecap="round" stroke-linejoin="round"/>
</g>
</g>
</svg>
