<svg width="32" height="32" viewBox="0 0 32 32" fill="none" xmlns="http://www.w3.org/2000/svg">
<g id="Icon/linear/shop">
<g id="shop">
<path id="Vector" d="M4.01343 14.9609V20.9476C4.01343 26.9343 6.41343 29.3343 12.4001 29.3343H19.5868C25.5734 29.3343 27.9734 26.9343 27.9734 20.9476V14.9609" stroke="#319DFF" stroke-width="1.5" stroke-linecap="round" stroke-linejoin="round"/>
<path id="Vector_2" d="M16 15.9993C18.44 15.9993 20.24 14.0127 20 11.5727L19.12 2.66602H12.8933L12 11.5727C11.76 14.0127 13.56 15.9993 16 15.9993Z" stroke="#319DFF" stroke-width="1.5" stroke-linecap="round" stroke-linejoin="round"/>
<path id="Vector_3" d="M24.4133 15.9993C27.1066 15.9993 29.08 13.8127 28.8133 11.1327L28.44 7.46602C27.96 3.99935 26.6267 2.66602 23.1333 2.66602H19.0667L20 12.0127C20.2267 14.2127 22.2133 15.9993 24.4133 15.9993Z" stroke="#319DFF" stroke-width="1.5" stroke-linecap="round" stroke-linejoin="round"/>
<path id="Vector_4" d="M7.52009 15.9993C9.72009 15.9993 11.7068 14.2127 11.9201 12.0127L12.2134 9.06602L12.8534 2.66602H8.78675C5.29342 2.66602 3.96009 3.99935 3.48009 7.46602L3.12009 11.1327C2.85342 13.8127 4.82675 15.9993 7.52009 15.9993Z" stroke="#319DFF" stroke-width="1.5" stroke-linecap="round" stroke-linejoin="round"/>
<path id="Vector_5" d="M16.0001 22.666C13.7734 22.666 12.6667 23.7727 12.6667 25.9993V29.3327H19.3334V25.9993C19.3334 23.7727 18.2267 22.666 16.0001 22.666Z" stroke="#319DFF" stroke-width="1.5" stroke-linecap="round" stroke-linejoin="round"/>
</g>
</g>
</svg>
