<svg width="33" height="32" viewBox="0 0 33 32" fill="none" xmlns="http://www.w3.org/2000/svg">
<g id="Icon/linear/user-square">
<g id="user-square">
<path id="Vector" d="M24.6866 28.827C23.5132 29.1737 22.1266 29.3337 20.4999 29.3337H12.4999C10.8732 29.3337 9.48657 29.1737 8.31323 28.827C8.60657 25.3603 12.1666 22.627 16.4999 22.627C20.8332 22.627 24.3932 25.3603 24.6866 28.827Z" stroke="#319DFF" stroke-width="1.5" stroke-linecap="round" stroke-linejoin="round"/>
<path id="Vector_2" d="M20.5001 2.66602H12.5001C5.83341 2.66602 3.16675 5.33268 3.16675 11.9993V19.9993C3.16675 25.0393 4.68675 27.7993 8.31342 28.826C8.60675 25.3593 12.1667 22.626 16.5001 22.626C20.8334 22.626 24.3934 25.3593 24.6867 28.826C28.3134 27.7993 29.8334 25.0393 29.8334 19.9993V11.9993C29.8334 5.33268 27.1667 2.66602 20.5001 2.66602ZM16.5001 18.8927C13.8601 18.8927 11.7267 16.746 11.7267 14.106C11.7267 11.466 13.8601 9.33268 16.5001 9.33268C19.1401 9.33268 21.2734 11.466 21.2734 14.106C21.2734 16.746 19.1401 18.8927 16.5001 18.8927Z" stroke="#319DFF" stroke-width="1.5" stroke-linecap="round" stroke-linejoin="round"/>
<path id="Vector_3" d="M21.2732 14.1073C21.2732 16.7473 19.1399 18.894 16.4999 18.894C13.8599 18.894 11.7266 16.7473 11.7266 14.1073C11.7266 11.4673 13.8599 9.33398 16.4999 9.33398C19.1399 9.33398 21.2732 11.4673 21.2732 14.1073Z" stroke="#319DFF" stroke-width="1.5" stroke-linecap="round" stroke-linejoin="round"/>
</g>
</g>
</svg>
