<svg width="29" height="32" viewBox="0 0 29 32" fill="none" xmlns="http://www.w3.org/2000/svg">
<g id="Group 3">
<path id="Vector" d="M5.93359 10.0592C7.91289 10.0592 9.52008 11.8706 9.52008 14.1013V24.7119C7.54079 24.7119 5.93359 22.9005 5.93359 20.6697V10.0592Z" fill="url(#paint0_linear_7461_7324)"/>
<path id="Vector_2" d="M20.8008 20.502C20.8008 22.8262 19.1271 24.7125 17.0649 24.7125H9.51828C9.51828 22.3883 11.192 20.502 13.2542 20.502H20.8008Z" fill="url(#paint1_linear_7461_7324)"/>
<path id="Vector_3" d="M28.3564 24.3025C28.0187 28.2258 25.3236 31.3719 21.8866 31.9159C21.6467 31.9538 21.4024 31.9791 21.1558 31.9909C21.0452 31.9976 20.9339 32.0002 20.8218 32.0002H0V8.53319C0 8.40688 0.00224155 8.2814 0.00747185 8.15677C0.0156909 7.93951 0.0313818 7.72393 0.0537973 7.51172C1.73048 7.52519 3.11502 8.93067 3.34067 10.753V28.2351H20.8218C23.1545 28.2351 25.0524 26.0953 25.0524 23.4663C25.0524 21.0848 23.4952 19.1058 21.4681 18.7538C21.8096 18.6848 22.1615 18.6486 22.5202 18.6486C25.479 18.6486 27.929 21.1025 28.3564 24.3025Z" fill="url(#paint2_linear_7461_7324)"/>
<path id="Vector_4" d="M11.8039 1.45516C10.5957 0.537264 9.1402 0 7.57261 0C3.69845 0 0.50274 3.27916 0.0551758 7.51159C1.73186 7.52506 3.11639 8.93054 3.34204 10.7529V8.53306C3.34204 5.90401 5.23989 3.76421 7.57261 3.76421C9.90532 3.76421 11.8039 5.90401 11.8039 8.53306V18.5213C11.8936 16.5255 13.3536 14.9364 15.1446 14.9263V8.53306C15.1446 5.58653 13.8191 2.98863 11.8039 1.45516Z" fill="url(#paint3_linear_7461_7324)"/>
<path id="Vector_5" d="M27.1033 18.6982C25.7427 16.4262 23.4384 14.9331 20.824 14.9331H15.1454V14.9264C13.3544 14.9365 11.8943 16.5256 11.8047 18.5213V18.6982H20.824C21.0436 18.6982 21.2596 18.7176 21.4703 18.7538H21.471C21.8125 18.6847 22.1637 18.6485 22.5223 18.6485C25.4812 18.6485 27.9312 21.1024 28.3586 24.3024C28.3832 24.027 28.3952 23.7483 28.3952 23.4662C28.3952 21.6995 27.9185 20.059 27.1033 18.6982Z" fill="url(#paint4_linear_7461_7324)"/>
</g>
<defs>
<linearGradient id="paint0_linear_7461_7324" x1="7.72684" y1="10.0592" x2="7.72684" y2="24.7119" gradientUnits="userSpaceOnUse">
<stop stop-color="#55F869"/>
<stop offset="1" stop-color="#13A193"/>
</linearGradient>
<linearGradient id="paint1_linear_7461_7324" x1="20.8008" y1="22.6064" x2="9.51828" y2="22.6064" gradientUnits="userSpaceOnUse">
<stop stop-color="#55F869"/>
<stop offset="1" stop-color="#13A193"/>
</linearGradient>
<linearGradient id="paint2_linear_7461_7324" x1="0" y1="19.7559" x2="28.3564" y2="19.7559" gradientUnits="userSpaceOnUse">
<stop stop-color="#00FFFF"/>
<stop offset="1" stop-color="#5432E3"/>
</linearGradient>
<linearGradient id="paint3_linear_7461_7324" x1="0.0551758" y1="9.26064" x2="15.1446" y2="9.26064" gradientUnits="userSpaceOnUse">
<stop stop-color="#F03E49"/>
<stop offset="0.5" stop-color="#FA7B3C"/>
<stop offset="1" stop-color="#FFC040"/>
</linearGradient>
<linearGradient id="paint4_linear_7461_7324" x1="28.4774" y1="24.07" x2="12.6817" y2="15.9785" gradientUnits="userSpaceOnUse">
<stop stop-color="#55F869"/>
<stop offset="1" stop-color="#13A193"/>
</linearGradient>
</defs>
</svg>
