<svg width="32" height="32" viewBox="0 0 32 32" fill="none" xmlns="http://www.w3.org/2000/svg">
<g opacity="0.5">
<path d="M17.5305 27.499C18.1471 23.3573 16.8602 20.0841 16.1374 18.6431C15.9248 18.2192 15.3569 18.1332 15.0295 18.4761C13.9184 19.6413 11.7356 22.3923 11.1191 26.534C10.7114 29.2726 11.9431 31.7275 13.5871 31.9753C15.4081 32.2491 17.1228 30.2376 17.5305 27.499Z" fill="#FFFAFF"/>
<path d="M9.7065 6.27916C10.8915 10.2937 13.4354 12.7108 14.6975 13.7085C15.069 14.0019 15.6194 13.8376 15.7711 13.3877C16.2871 11.8586 17.1065 8.43674 15.9208 4.42281C15.1371 1.76837 12.988 0.0685065 11.3946 0.544493C9.62935 1.07199 8.92274 3.62471 9.7065 6.27916Z" fill="#FFFAFF"/>
<path d="M4.44643 15.5432C8.39116 16.8838 11.8212 16.1868 13.3595 15.7252C13.812 15.5895 13.9961 15.0418 13.718 14.6578C12.7735 13.3524 10.4663 10.7064 6.52155 9.36584C3.91355 8.47972 1.29388 9.26608 0.76165 10.8499C0.172371 12.6045 1.83843 14.6571 4.44708 15.5432H4.44643Z" fill="#FFFAFF"/>
<path d="M8.2382 24.6183C11.7849 22.4249 13.4458 19.3271 14.0765 17.8424C14.2619 17.4055 13.9611 16.9132 13.4898 16.8826C11.888 16.7783 8.38989 16.8708 4.8432 19.0643C2.49775 20.5144 1.42356 23.043 2.29484 24.4677C3.25947 26.045 5.8934 26.0691 8.23885 24.619L8.2382 24.6183Z" fill="#FFFAFF"/>
<path d="M20.2766 5.24956C17.6841 8.52604 17.1707 12.0079 17.0806 13.6197C17.054 14.0938 17.5033 14.4537 17.9571 14.3213C19.4986 13.8708 22.7562 12.5863 25.3493 9.30979C27.0633 7.14307 27.2176 4.398 25.9172 3.35669C24.4767 2.20389 21.9913 3.08284 20.2772 5.24956H20.2766Z" fill="#FFFAFF"/>
<path d="M26.9155 12.4089C22.7543 12.54 19.782 14.3983 18.5016 15.3717C18.125 15.658 18.1425 16.2357 18.5366 16.4978C19.8753 17.3892 22.9565 19.0571 27.1184 18.926C29.8704 18.8393 32.0512 17.1818 31.9993 15.5106C31.9416 13.6595 29.6675 12.3222 26.9155 12.4089Z" fill="#FFFAFF"/>
<path d="M25.7513 22.1582C22.9929 19.0213 19.6731 17.9082 18.1107 17.5392C17.6511 17.4303 17.2206 17.813 17.2719 18.2858C17.4449 19.8911 18.1373 23.341 20.8957 26.478C22.7193 28.5521 25.3804 29.1819 26.6258 28.0741C28.0053 26.8477 27.5755 24.233 25.7519 22.1589L25.7513 22.1582Z" fill="#FFFAFF"/>
</g>
<path d="M14.0182 15.6248C14.0182 14.9552 14.5744 14.4114 15.2596 14.4114H17.4495C17.4547 14.4114 17.4592 14.412 17.4657 14.412V14.5796C17.4657 14.5796 17.4709 14.8143 17.2783 14.9852C17.0677 15.171 16.846 15.173 16.846 15.173H16.3215H15.2966C15.0418 15.173 14.8357 15.3751 14.8357 15.6242C14.8357 15.8732 15.0418 16.0741 15.2966 16.0741H16.5037C16.5037 16.0741 16.6398 16.0884 16.7332 16.1523C16.8388 16.2247 16.8784 16.316 16.8784 16.4431C16.8784 16.6094 16.7941 16.7483 16.6288 16.8135C16.5763 16.8337 16.4751 16.8363 16.4751 16.8363H15.2603C14.5751 16.8363 14.0188 16.2932 14.0188 15.6235L14.0182 15.6248Z" fill="#FFF200"/>
<path d="M16.542 17.6644H14.3527C14.3476 17.6644 14.0837 17.6644 14.0779 17.6644V17.5092C14.0779 17.5092 14.0753 17.1904 14.3002 17.0247C14.4876 16.8865 15.0198 16.9028 15.0198 16.9028H15.4801L16.5057 16.9022C16.7611 16.9022 16.9672 16.7007 16.9672 16.4516C16.9672 16.2025 16.7611 16.0004 16.5057 16.0004H15.2986C15.2986 16.0004 15.1618 15.9867 15.0684 15.9228C14.9628 15.8498 14.9232 15.7585 14.9232 15.6313C14.9232 15.4657 15.0075 15.3262 15.1735 15.2616C15.2253 15.2408 15.3278 15.2382 15.3278 15.2382H16.5413C17.2278 15.2382 17.7834 15.7813 17.7834 16.4516C17.7834 17.1219 17.2278 17.6644 16.5413 17.6644H16.542Z" fill="#FFF200"/>
<path d="M12.8027 27.2037C15.0049 23.6494 15.1177 20.1317 15.0237 18.5198C14.9958 18.0458 14.5083 17.74 14.0733 17.9239C12.5933 18.5492 9.50298 20.2008 7.30145 23.755C5.84543 26.105 6.00491 28.8501 7.41619 29.7342C8.97853 30.7136 11.3473 29.5536 12.8033 27.2037H12.8027Z" fill="#F354DD"/>
<path d="M14.0071 4.60342C13.5086 8.76081 14.8868 11.9962 15.6511 13.4163C15.8761 13.8343 16.4459 13.9034 16.7629 13.5513C17.8403 12.3548 19.9446 9.54195 20.4431 5.38456C20.7731 2.63558 19.4727 0.216519 17.8222 0.0163439C15.9941 -0.205349 14.3371 1.85443 14.0071 4.60342Z" fill="#FFCF3F"/>
<path d="M5.52057 11.0019C8.61088 13.8089 12.0331 14.5405 13.6272 14.7315C14.0966 14.7876 14.481 14.3592 14.3779 13.8956C14.0272 12.3203 12.955 8.96947 9.86529 6.16311C7.82193 4.30741 5.10762 3.98139 3.99324 5.22222C2.75958 6.59671 3.47722 9.14617 5.52057 11.0019Z" fill="#FB9902"/>
<path d="M5.41371 20.8457C9.53477 20.251 12.2834 18.0719 13.4484 16.9615C13.7913 16.6348 13.7096 16.063 13.2896 15.8465C11.8608 15.1103 8.61423 13.7965 4.49316 14.3918C1.76782 14.785 -0.217184 16.6759 0.0187872 18.3308C0.280041 20.1636 2.68837 21.2388 5.41371 20.8457Z" fill="#FF5C35"/>
<path d="M24.1137 7.88446C20.4399 9.85491 18.593 12.8445 17.8734 14.2881C17.6614 14.7126 17.9317 15.2225 18.4004 15.2825C19.9932 15.4852 23.49 15.6091 27.1638 13.6387C29.5929 12.3359 30.8194 9.87838 30.0369 8.40283C29.1708 6.76882 26.5427 6.58234 24.113 7.88511L24.1137 7.88446Z" fill="#83C9E5"/>
<path d="M27.3771 17.1075C23.507 15.5642 20.0452 16.0812 18.4855 16.4627C18.0265 16.5748 17.8151 17.1121 18.0725 17.5098C18.949 18.8628 21.1174 21.6249 24.9876 23.1682C27.547 24.1887 30.2036 23.5399 30.8162 21.9854C31.495 20.2641 29.9365 18.1273 27.3771 17.1069V17.1075Z" fill="#4285F4"/>
<path d="M22.4567 25.5885C21.1654 21.6072 18.5587 19.2592 17.2705 18.2955C16.8913 18.0119 16.3455 18.1912 16.2054 18.645C15.7302 20.1871 15.0022 23.6298 16.2936 27.6112C17.1474 30.2434 19.3411 31.8853 20.921 31.3662C22.6713 30.7918 23.3105 28.2208 22.4561 25.5885H22.4567Z" fill="#A54F8C"/>
</svg>
