<svg width="60" height="60" viewBox="0 0 60 60" fill="none" xmlns="http://www.w3.org/2000/svg">
<path d="M22.5 5C15.95 5 10.625 10.325 10.625 16.875C10.625 23.3 15.65 28.5 22.2 28.725C22.4 28.7 22.6 28.7 22.75 28.725C22.8 28.725 22.825 28.725 22.875 28.725C22.9 28.725 22.9 28.725 22.925 28.725C29.325 28.5 34.35 23.3 34.375 16.875C34.375 10.325 29.05 5 22.5 5Z" fill="#A3ADC2"/>
<path d="M35.2 35.375C28.225 30.725 16.85 30.725 9.82502 35.375C6.65002 37.5 4.90002 40.375 4.90002 43.45C4.90002 46.525 6.65002 49.375 9.80002 51.475C13.3 53.825 17.9 55 22.5 55C27.1 55 31.7 53.825 35.2 51.475C38.35 49.35 40.1 46.5 40.1 43.4C40.075 40.325 38.35 37.475 35.2 35.375Z" fill="#A3ADC2"/>
<path d="M49.975 18.35C50.375 23.2 46.925 27.45 42.15 28.025C42.125 28.025 42.125 28.025 42.1 28.025H42.025C41.875 28.025 41.725 28.025 41.6 28.075C39.175 28.2 36.95 27.425 35.275 26C37.85 23.7 39.325 20.25 39.025 16.5C38.85 14.475 38.15 12.625 37.1 11.05C38.05 10.575 39.15 10.275 40.275 10.175C45.175 9.75001 49.55 13.4 49.975 18.35Z" fill="#A3ADC2"/>
<path d="M54.975 41.475C54.775 43.9 53.225 46 50.625 47.425C48.125 48.8 44.975 49.45 41.85 49.375C43.65 47.75 44.7 45.725 44.9 43.575C45.15 40.475 43.675 37.5 40.725 35.125C39.05 33.8 37.1 32.75 34.975 31.975C40.5 30.375 47.45 31.45 51.725 34.9C54.025 36.75 55.2 39.075 54.975 41.475Z" fill="#A3ADC2"/>
</svg>
