<?xml version="1.0" encoding="UTF-8"?>
<svg id="Layer_2" data-name="Layer 2" xmlns="http://www.w3.org/2000/svg" viewBox="0 0 57.6 56.79">
  <defs>
    <style>
      .cls-1 {
        fill: #fff;
      }

      .cls-2 {
        fill: #0180c7;
      }
    </style>
  </defs>
  <g id="Layer_1-2" data-name="Layer 1">
    <path class="cls-2" d="M57.6,27.15c0,15-12.9,27.16-28.8,27.16-3.93,0-7.68-.74-11.1-2.09l-9.21,4.57,.73-9.72C3.55,42.11,0,35.02,0,27.15,0,12.16,12.89,0,28.8,0s28.8,12.16,28.8,27.15Z"/>
    <g>
      <path class="cls-1" d="M12.38,31.64c2.1,0,4.07-.01,6.03,0,1.1,.01,1.7,.47,1.81,1.35,.13,1.1-.51,1.83-1.71,1.85-2.25,.03-4.49,.01-6.74,.01-.65,0-1.29,.03-1.95-.01-.81-.04-1.6-.21-1.99-1.04s-.11-1.58,.42-2.27c2.14-2.72,4.29-5.46,6.45-8.19,.13-.17,.25-.33,.38-.49-.14-.24-.33-.13-.5-.14-1.5-.01-3.02,0-4.52-.01-.35,0-.69-.04-1.03-.11-.79-.18-1.28-.97-1.1-1.75,.13-.53,.54-.96,1.07-1.08,.33-.08,.68-.13,1.03-.13,2.47-.01,4.96-.01,7.43,0,.44-.01,.88,.04,1.31,.15,.95,.32,1.35,1.2,.97,2.11-.33,.79-.86,1.47-1.39,2.15-1.82,2.32-3.64,4.63-5.46,6.92-.15,.18-.29,.36-.51,.67h0Z"/>
      <path class="cls-1" d="M28.5,24.33c.33-.43,.68-.83,1.25-.95,1.1-.22,2.13,.49,2.14,1.6,.04,2.78,.03,5.56,0,8.34,0,.72-.47,1.36-1.15,1.57-.69,.26-1.49,.06-1.95-.54-.24-.29-.33-.35-.67-.08-1.26,1.03-2.7,1.21-4.24,.71-2.47-.81-3.49-2.74-3.77-5.09-.29-2.54,.56-4.71,2.84-6.05,1.89-1.13,3.81-1.03,5.54,.49h0Zm-4.92,5.07c.03,.61,.22,1.2,.58,1.68,.75,1,2.18,1.21,3.2,.46,.17-.13,.32-.28,.46-.46,.78-1.06,.78-2.79,0-3.85-.39-.54-1-.86-1.65-.88-1.53-.1-2.6,1.08-2.58,3.04Zm14.55,.08c-.11-3.57,2.24-6.24,5.57-6.34,3.54-.11,6.13,2.27,6.24,5.74,.11,3.52-2.04,6-5.36,6.34-3.63,.36-6.5-2.27-6.45-5.74h0Zm3.49-.33c-.03,.69,.18,1.38,.6,1.95,.76,1,2.2,1.2,3.2,.42,.15-.11,.28-.25,.4-.39,.81-1.06,.81-2.84,.01-3.89-.39-.53-1-.86-1.65-.88-1.5-.08-2.56,1.06-2.56,2.79Zm-4.71-2.43c0,2.15,.01,4.31,0,6.46,.01,.99-.76,1.81-1.75,1.83-.17,0-.35-.01-.51-.06-.69-.18-1.22-.92-1.22-1.79v-11.05c0-.65-.01-1.29,0-1.95,.01-1.07,.69-1.76,1.72-1.76,1.06-.01,1.76,.68,1.76,1.79,.01,2.17,0,4.35,0,6.52Z"/>
    </g>
  </g>
</svg>